<svg id="search" xmlns="http://www.w3.org/2000/svg" width="512" height="512" viewBox="0 0 512 512">
  <g id="Group_11" data-name="Group 11">
    <g id="Group_10" data-name="Group 10">
      <path id="Path_3" data-name="Path 3" d="M216.276,0C97.021,0,0,97.021,0,216.276S97.021,432.552,216.276,432.552s216.276-97.021,216.276-216.276S335.53,0,216.276,0Zm0,394.719c-98.4,0-178.443-80.047-178.443-178.443S117.88,37.833,216.276,37.833,394.719,117.88,394.719,216.276,314.672,394.719,216.276,394.719Z"/>
    </g>
  </g>
  <g id="Group_13" data-name="Group 13">
    <g id="Group_12" data-name="Group 12">
      <path id="Path_4" data-name="Path 4" d="M506.458,479.71,369,342.252A18.914,18.914,0,1,0,342.251,369L479.71,506.458a18.914,18.914,0,0,0,26.748-26.748Z"/>
    </g>
  </g>
</svg>
